HIERARCHY
ROOT joint_Root
{
	OFFSET 0.0 0.0 0.0
	CHANNELS 6 Xposition Yposition Zposition Zrotation Xrotation Yrotation 
	JOINT Hips
	{
		OFFSET 4.5925 91.4895 -427.239
		CHANNELS 6 Xposition Yposition Zposition Zrotation Xrotation Yrotation 
		JOINT Spine
		{
			OFFSET 15.7357 0.0 0.0
			CHANNELS 6 Xposition Yposition Zposition Zrotation Xrotation Yrotation 
			JOINT Chest
			{
				OFFSET 8.98455 -0.406207 0.0
				CHANNELS 6 Xposition Yposition Zposition Zrotation Xrotation Yrotation 
				JOINT Neck
				{
					OFFSET 16.3773 0.0 0.0
					CHANNELS 6 Xposition Yposition Zposition Zrotation Xrotation Yrotation 
					JOINT Head
					{
						OFFSET 6.45672 0.0 0.0
						CHANNELS 6 Xposition Yposition Zposition Zrotation Xrotation Yrotation 
						End Site
						{
							OFFSET 0.0 0.0 0.0
						}
					}
				}
				JOINT Shoulder_L
				{
					OFFSET 12.9942 -0.242716 4.98039
					CHANNELS 6 Xposition Yposition Zposition Zrotation Xrotation Yrotation 
					JOINT UpperArm_L
					{
						OFFSET 5.34809 0.0 0.0
						CHANNELS 6 Xposition Yposition Zposition Zrotation Xrotation Yrotation 
						JOINT LowerArm_L
						{
							OFFSET 24.3286 1.87007e-05 0.0
							CHANNELS 6 Xposition Yposition Zposition Zrotation Xrotation Yrotation 
							JOINT Hand_L
							{
								OFFSET 22.2916 0.0 0.0
								CHANNELS 6 Xposition Yposition Zposition Zrotation Xrotation Yrotation 
								End Site
								{
									OFFSET 0.0 0.0 0.0
								}
							}
						}
					}
				}
				JOINT Shoulder_R
				{
					OFFSET 12.9945 -0.242716 -4.98039
					CHANNELS 6 Xposition Yposition Zposition Zrotation Xrotation Yrotation 
					JOINT UpperArm_R
					{
						OFFSET -5.34813 0.0 0.0
						CHANNELS 6 Xposition Yposition Zposition Zrotation Xrotation Yrotation 
						JOINT LowerArm_R
						{
							OFFSET -24.3289 0.000322201 0.0
							CHANNELS 6 Xposition Yposition Zposition Zrotation Xrotation Yrotation 
							JOINT Hand_R
							{
								OFFSET -22.2915 -0.000108084 0.0
								CHANNELS 6 Xposition Yposition Zposition Zrotation Xrotation Yrotation 
								End Site
								{
									OFFSET 0.0 0.0 0.0
								}
							}
						}
					}
				}
			}
		}
		JOINT UpperLeg_L
		{
			OFFSET -2.19248 -6.46944 0.0
			CHANNELS 6 Xposition Yposition Zposition Zrotation Xrotation Yrotation 
			JOINT LowerLeg_L
			{
				OFFSET 39.0811 0.0 -1.23785e-05
				CHANNELS 6 Xposition Yposition Zposition Zrotation Xrotation Yrotation 
				JOINT Foot_L
				{
					OFFSET 40.9854 0.0 -1.26872e-05
					CHANNELS 6 Xposition Yposition Zposition Zrotation Xrotation Yrotation 
					JOINT Toes_L
					{
						OFFSET 11.7543 0.0 0.0
						CHANNELS 6 Xposition Yposition Zposition Zrotation Xrotation Yrotation 
						End Site
						{
							OFFSET 0.0 0.0 0.0
						}
					}
				}
			}
		}
		JOINT UpperLeg_R
		{
			OFFSET -2.19251 6.46944 0.0
			CHANNELS 6 Xposition Yposition Zposition Zrotation Xrotation Yrotation 
			JOINT LowerLeg_R
			{
				OFFSET -39.0811 -0.00228153 -0.0401928
				CHANNELS 6 Xposition Yposition Zposition Zrotation Xrotation Yrotation 
				JOINT Foot_R
				{
					OFFSET -40.9854 0.0 0.0
					CHANNELS 6 Xposition Yposition Zposition Zrotation Xrotation Yrotation 
					JOINT Toes_R
					{
						OFFSET -11.7543 0.0 0.0
						CHANNELS 6 Xposition Yposition Zposition Zrotation Xrotation Yrotation 
						End Site
						{
							OFFSET 0.0 0.0 0.0
						}
					}
				}
			}
		}
	}
}
MOTION
Frames:	9
Frame Time:	0.0333333
0.000000 0.000000 0.000000 0.000000 0.000000 -0.000000 -0.733291 90.548600 2.044540 89.810700 -4.767010 10.441200 15.735700 0.000005 -0.000001 85.334300 82.493100 -85.094200 8.984550 -0.406207 -0.000000 7.201900 -1.218050 0.556426 16.377300 -0.000001 -0.000001 5.087260 -3.266550 2.093020 6.456720 -0.000001 -0.000000 -13.525900 -1.700270 0.037810 12.994200 -0.242716 4.980390 -91.938100 7.081120 -74.650200 5.348090 -0.000007 -0.000001 -60.936200 40.706200 -17.504700 24.328600 0.000019 0.000005 9.156970 22.433800 -22.898900 22.291600 -0.000001 0.000005 7.309170 5.325340 -0.649710 12.994500 -0.242716 -4.980390 88.352800 11.407400 -81.727400 -5.348130 -0.000001 -0.000004 -62.646800 37.524800 -10.577100 -24.328900 0.000322 -0.000009 1.059900 2.982910 -19.589600 -22.291500 -0.000108 -0.000004 11.934700 5.432030 -4.008830 -2.192480 -6.469440 -0.000000 -173.781000 -15.235900 2.462990 39.081100 -0.000007 -0.000012 -0.201797 0.340913 30.622900 40.985400 -0.000006 -0.000013 -0.035386 5.358580 -71.982200 11.754300 -0.000000 0.000003 -0.000096 -0.000991 -16.615600 -2.192510 6.469440 -0.000001 172.490000 21.558900 -176.066000 -39.081100 -0.002282 -0.040193 -0.238387 0.418239 30.022800 -40.985400 0.000008 0.000006 3.260450 13.961800 -72.698800 -11.754300 -0.000006 -0.000006 -0.001051 -0.016136 -17.229300
0.000000 0.000000 0.000000 0.000000 0.000000 -0.000000 -0.747811 90.556100 1.959510 89.840000 -4.634360 10.488600 15.735700 0.000005 -0.000001 85.221800 82.498400 -84.969500 8.984550 -0.406207 -0.000000 7.189020 -1.246530 0.582373 16.377300 -0.000001 -0.000001 5.367140 -3.404580 2.348830 6.456720 -0.000001 -0.000000 -13.320200 -1.833100 0.027670 12.994200 -0.242716 4.980390 -91.925800 7.047580 -74.674200 5.348090 -0.000007 -0.000001 -60.850100 39.259100 -17.768500 24.328600 0.000019 0.000005 9.373810 22.705200 -23.155100 22.291600 -0.000001 0.000005 6.640070 5.326420 -0.680165 12.994500 -0.242716 -4.980390 88.371900 11.241300 -81.704300 -5.348130 -0.000001 -0.000004 -62.666200 37.343100 -10.493400 -24.328900 0.000322 -0.000009 1.047110 2.986010 -19.352500 -22.291500 -0.000108 -0.000004 12.002500 5.431070 -3.975860 -2.192480 -6.469440 -0.000000 -173.811000 -15.174300 2.421730 39.081100 -0.000007 -0.000012 -0.200054 0.337909 30.627300 40.985400 -0.000006 -0.000013 -0.017164 5.425580 -71.908700 11.754300 -0.000000 0.000003 -0.000092 -0.000957 -16.614300 -2.192510 6.469440 -0.000001 172.468000 21.614300 -176.068000 -39.081100 -0.002282 -0.040193 -0.237487 0.416358 30.042100 -40.985400 0.000008 0.000006 3.269010 13.907700 -72.667900 -11.754300 -0.000006 -0.000006 -0.001146 -0.017462 -17.283200
0.000000 0.000000 0.000000 0.000000 0.000000 -0.000000 -0.770298 90.564000 1.863190 89.866900 -4.411380 10.578100 15.735700 0.000005 -0.000001 85.132700 82.496400 -84.865900 8.984550 -0.406207 -0.000000 7.191480 -1.270130 0.612739 16.377300 -0.000001 -0.000001 5.719750 -3.616000 2.584150 6.456720 -0.000001 -0.000000 -13.076600 -2.137500 0.120554 12.994200 -0.242716 4.980390 -91.920400 7.042160 -74.704300 5.348090 -0.000007 -0.000001 -60.304800 37.502100 -18.591500 24.328600 0.000019 0.000005 9.721690 23.090900 -23.597200 22.291600 -0.000001 0.000005 5.809350 5.321930 -0.551069 12.994500 -0.242716 -4.980390 88.402000 11.036400 -81.708700 -5.348130 -0.000001 -0.000004 -62.748400 37.012800 -10.334900 -24.328900 0.000322 -0.000009 1.072760 3.103730 -19.095200 -22.291500 -0.000108 -0.000004 11.970400 5.428220 -3.877850 -2.192480 -6.469440 -0.000000 -173.835000 -15.028700 2.404450 39.081100 -0.000007 -0.000012 -0.201086 0.339556 30.634500 40.985400 -0.000006 -0.000013 -0.001303 5.512100 -71.825700 11.754300 -0.000000 0.000003 -0.000094 -0.000980 -16.615200 -2.192510 6.469440 -0.000001 172.417000 21.759400 -176.010000 -39.081100 -0.002282 -0.040193 -0.236420 0.414273 30.056400 -40.985400 0.000008 0.000006 3.280010 13.840600 -72.635600 -11.754300 -0.000006 -0.000006 -0.001028 -0.015807 -17.216000
0.000000 0.000000 0.000000 0.000000 0.000000 -0.000000 -0.795720 90.572900 1.752270 89.899800 -4.087790 10.660300 15.735700 0.000005 -0.000001 85.059700 82.501400 -84.796200 8.984550 -0.406207 -0.000000 7.179910 -1.288270 0.607233 16.377300 -0.000001 -0.000001 6.103430 -3.912860 2.840620 6.456720 -0.000001 -0.000000 -12.742300 -2.602580 0.356367 12.994200 -0.242716 4.980390 -91.897400 6.978490 -74.748300 5.348090 -0.000007 -0.000001 -59.126300 35.772000 -20.180200 24.328600 0.000019 0.000005 10.279300 23.674100 -24.306500 22.291600 -0.000001 0.000005 4.958410 5.314440 -0.335684 12.994500 -0.242716 -4.980390 88.429500 10.873700 -81.730800 -5.348130 -0.000001 -0.000004 -62.822900 36.779400 -10.110300 -24.328900 0.000322 -0.000009 1.119850 3.294240 -18.803700 -22.291500 -0.000108 -0.000004 11.975900 5.427370 -3.849540 -2.192480 -6.469440 -0.000000 -173.903000 -14.778100 2.339130 39.081100 -0.000007 -0.000012 -0.196965 0.332365 30.652000 40.985400 -0.000006 -0.000013 0.016869 5.585370 -71.726800 11.754300 -0.000000 0.000003 -0.000087 -0.000915 -16.612800 -2.192510 6.469440 -0.000001 172.348000 22.006500 -175.962000 -39.081100 -0.002282 -0.040193 -0.234807 0.411090 30.080300 -40.985400 0.000008 0.000006 3.294780 13.762000 -72.597800 -11.754300 -0.000006 -0.000006 -0.001048 -0.016083 -17.227200
0.000000 0.000000 0.000000 0.000000 0.000000 -0.000000 -0.843852 90.584000 1.620410 89.934500 -3.706960 10.749700 15.735700 0.000005 -0.000001 84.993400 82.504800 -84.733300 8.984550 -0.406207 -0.000000 7.171670 -1.304900 0.601513 16.377300 -0.000001 -0.000001 6.526350 -4.217940 3.048810 6.456720 -0.000001 -0.000000 -12.280100 -3.183180 0.729297 12.994200 -0.242716 4.980390 -91.856000 6.864370 -74.830500 5.348090 -0.000007 -0.000001 -57.633900 33.768900 -22.251600 24.328600 0.000019 0.000005 11.074400 24.288100 -25.447200 22.291600 -0.000001 0.000005 4.467730 5.305550 -0.083512 12.994500 -0.242716 -4.980390 88.464400 10.713200 -81.793800 -5.348130 -0.000001 -0.000004 -62.807000 36.607800 -9.991410 -24.328900 0.000322 -0.000009 1.120060 3.374350 -18.390900 -22.291500 -0.000108 -0.000004 11.844800 5.428660 -3.892930 -2.192480 -6.469440 -0.000000 -173.928000 -14.598300 2.262240 39.081100 -0.000007 -0.000012 -0.196994 0.332168 30.670500 40.985400 -0.000006 -0.000013 0.047519 5.765200 -71.600200 11.754300 -0.000000 0.000003 -0.000097 -0.001000 -16.616000 -2.192510 6.469440 -0.000001 172.305000 22.230400 -175.907000 -39.081100 -0.002282 -0.040193 -0.233770 0.409066 30.094600 -40.985400 0.000008 0.000006 3.302180 13.599500 -72.554300 -11.754300 -0.000006 -0.000006 -0.001001 -0.015424 -17.200400
0.000000 0.000000 0.000000 0.000000 0.000000 -0.000000 -0.877531 90.596400 1.471710 89.985800 -3.316590 10.812600 15.735700 0.000005 -0.000001 84.806800 82.523300 -84.549600 8.984550 -0.406207 -0.000000 7.130540 -1.350140 0.597965 16.377300 -0.000001 -0.000001 6.982160 -4.518730 3.222780 6.456720 -0.000001 -0.000000 -11.716700 -3.730420 1.112410 12.994200 -0.242716 4.980390 -91.814900 6.753110 -74.919400 5.348090 -0.000007 -0.000001 -55.918800 31.587900 -24.509200 24.328600 0.000019 0.000005 11.688700 23.967400 -26.990100 22.291600 -0.000001 0.000005 4.588950 5.304160 -0.044445 12.994500 -0.242716 -4.980390 88.485900 10.625700 -81.842400 -5.348130 -0.000001 -0.000004 -62.667900 36.514500 -9.944170 -24.328900 0.000322 -0.000009 1.163720 3.595870 -17.961700 -22.291500 -0.000108 -0.000004 11.883900 5.427850 -3.865290 -2.192480 -6.469440 -0.000000 -173.993000 -14.395900 2.139260 39.081100 -0.000007 -0.000012 -0.196613 0.331334 30.685100 40.985400 -0.000006 -0.000013 0.089430 5.953130 -71.457800 11.754300 -0.000000 0.000003 -0.000082 -0.000866 -16.610900 -2.192510 6.469440 -0.000001 172.229000 22.507500 -175.892000 -39.081100 -0.002282 -0.040193 -0.235539 0.411666 30.121800 -40.985400 0.000008 0.000006 3.318580 13.495600 -72.506400 -11.754300 -0.000006 -0.000006 -0.001033 -0.015876 -17.218800
0.000000 0.000000 0.000000 0.000000 0.000000 -0.000000 -0.912833 90.609900 1.326600 90.037400 -2.993460 10.861000 15.735700 0.000005 -0.000001 84.826100 82.542800 -84.563500 8.984550 -0.406207 -0.000000 7.092200 -1.341790 0.607818 16.377300 -0.000001 -0.000001 7.462530 -4.815620 3.397010 6.456720 -0.000001 -0.000000 -11.108800 -4.281110 1.475410 12.994200 -0.242716 4.980390 -91.761200 6.623990 -75.074200 5.348090 -0.000007 -0.000001 -54.267200 28.984100 -26.834100 24.328600 0.000019 0.000005 12.176700 22.977600 -28.932100 22.291600 -0.000001 0.000005 4.792220 5.302240 0.009595 12.994500 -0.242716 -4.980390 88.490100 10.556400 -81.812800 -5.348130 -0.000001 -0.000004 -62.486300 36.348500 -10.010600 -24.328900 0.000322 -0.000009 1.193100 3.779790 -17.547200 -22.291500 -0.000108 -0.000004 11.811400 5.426180 -3.808090 -2.192480 -6.469440 -0.000000 -174.034000 -14.332700 2.033780 39.081100 -0.000007 -0.000012 -0.195157 0.328892 30.684200 40.985400 -0.000006 -0.000013 0.140406 6.166120 -71.318500 11.754300 -0.000000 0.000003 -0.000087 -0.000915 -16.612800 -2.192510 6.469440 -0.000001 172.197000 22.678900 -175.923000 -39.081100 -0.002282 -0.040193 -0.233332 0.407337 30.153900 -40.985400 0.000008 0.000006 3.324920 13.346900 -72.447500 -11.754300 -0.000006 -0.000006 -0.001116 -0.017047 -17.266400
0.000000 0.000000 0.000000 0.000000 0.000000 -0.000000 -0.961476 90.619700 1.190580 90.072700 -2.695040 10.952700 15.735700 0.000005 -0.000001 84.768900 82.535100 -84.495800 8.984550 -0.406207 -0.000000 7.106420 -1.357990 0.629867 16.377300 -0.000001 -0.000001 7.920070 -5.084330 3.524480 6.456720 -0.000001 -0.000000 -10.336200 -4.780550 1.919430 12.994200 -0.242716 4.980390 -91.704600 6.469910 -75.205700 5.348090 -0.000007 -0.000001 -52.694600 26.064300 -29.299500 24.328600 0.000019 0.000005 12.903300 22.202100 -31.227000 22.291600 -0.000001 0.000005 4.962130 5.300920 0.046546 12.994500 -0.242716 -4.980390 88.489500 10.566500 -81.817000 -5.348130 -0.000001 -0.000004 -62.298700 35.917800 -10.102200 -24.328900 0.000322 -0.000009 1.222770 3.947500 -17.240000 -22.291500 -0.000108 -0.000004 11.902400 5.424100 -3.737650 -2.192480 -6.469440 -0.000000 -174.068000 -14.133200 1.974470 39.081100 -0.000007 -0.000012 -0.194626 0.327874 30.693700 40.985400 -0.000006 -0.000013 0.153413 6.295150 -71.197600 11.754300 -0.000000 0.000003 -0.000088 -0.000919 -16.612900 -2.192510 6.469440 -0.000001 172.102000 23.010100 -175.863000 -39.081100 -0.002282 -0.040193 -0.233603 0.407375 30.180000 -40.985400 0.000008 0.000006 3.380990 13.354300 -72.412400 -11.754300 -0.000006 -0.000006 -0.001152 -0.017545 -17.286600
0.000000 0.000000 0.000000 0.000000 0.000000 -0.000000 -1.003110 90.626700 1.047060 90.124300 -2.430870 11.012200 15.735700 0.000005 -0.000001 84.716600 82.522300 -84.437200 8.984550 -0.406207 -0.000000 7.130830 -1.373820 0.643831 16.377300 -0.000001 -0.000001 8.313290 -5.342000 3.650630 6.456720 -0.000001 -0.000000 -9.438450 -5.237830 2.394520 12.994200 -0.242716 4.980390 -91.660700 6.374770 -75.366100 5.348090 -0.000007 -0.000001 -51.163500 22.853400 -31.939700 24.328600 0.000019 0.000005 13.532200 21.303500 -33.522600 22.291600 -0.000001 0.000005 5.291920 5.304030 -0.040863 12.994500 -0.242716 -4.980390 88.470200 10.670700 -81.792900 -5.348130 -0.000001 -0.000004 -61.971100 35.636800 -10.216600 -24.328900 0.000322 -0.000009 1.168790 3.776140 -17.226800 -22.291500 -0.000108 -0.000004 12.113500 5.422390 -3.679880 -2.192480 -6.469440 -0.000000 -174.124000 -14.026600 1.877580 39.081100 -0.000007 -0.000012 -0.192525 0.324059 30.715100 40.985400 -0.000006 -0.000013 0.176269 6.410890 -71.078300 11.754300 -0.000000 0.000003 -0.000083 -0.000879 -16.611400 -2.192510 6.469440 -0.000001 172.046000 23.176100 -175.881000 -39.081100 -0.002282 -0.040193 -0.237435 0.413050 30.235000 -40.985400 0.000008 0.000006 3.412290 13.286300 -72.380000 -11.754300 -0.000006 -0.000006 -0.001287 -0.019408 -17.362300
